%TF.GenerationSoftware,KiCad,Pcbnew,6.0.8-f2edbf62ab~116~ubuntu20.04.1*%
%TF.CreationDate,2022-10-17T17:20:23+03:00*%
%TF.ProjectId,nicla_sense,6e69636c-615f-4736-956e-73652e6b6963,rev?*%
%TF.SameCoordinates,Original*%
%TF.FileFunction,Legend,Top*%
%TF.FilePolarity,Positive*%
%FSLAX46Y46*%
G04 Gerber Fmt 4.6, Leading zero omitted, Abs format (unit mm)*
G04 Created by KiCad (PCBNEW 6.0.8-f2edbf62ab~116~ubuntu20.04.1) date 2022-10-17 17:20:23*
%MOMM*%
%LPD*%
G01*
G04 APERTURE LIST*
%ADD10C,0.127000*%
%ADD11C,0.200000*%
G04 APERTURE END LIST*
D10*
%TO.C,D6*%
X142229808Y-109256025D02*
X141710192Y-108956025D01*
X143229808Y-107523975D02*
X142710192Y-107223975D01*
D11*
X143790821Y-109670596D02*
G75*
G03*
X143790821Y-109670596I-102956J0D01*
G01*
D10*
%TO.C,D11*%
X153056025Y-97440192D02*
X153356025Y-97959808D01*
X151323975Y-98440192D02*
X151623975Y-98959808D01*
D11*
X152103552Y-96352135D02*
G75*
G03*
X152103552Y-96352135I-102956J0D01*
G01*
D10*
%TO.C,D7*%
X146390000Y-108190000D02*
X145790000Y-108190000D01*
X146390000Y-110190000D02*
X145790000Y-110190000D01*
D11*
X147962956Y-109820000D02*
G75*
G03*
X147962956Y-109820000I-102956J0D01*
G01*
D10*
%TO.C,D2*%
X142754589Y-96546025D02*
X143274205Y-96246025D01*
X141754589Y-94813975D02*
X142274205Y-94513975D01*
D11*
X140769488Y-95869404D02*
G75*
G03*
X140769488Y-95869404I-102956J0D01*
G01*
D10*
%TO.C,D12*%
X149940192Y-94513975D02*
X150459808Y-94813975D01*
X148940192Y-96246025D02*
X149459808Y-96546025D01*
D11*
X148585091Y-94099404D02*
G75*
G03*
X148585091Y-94099404I-102956J0D01*
G01*
D10*
%TO.C,D9*%
X151623975Y-104700192D02*
X151323975Y-105219808D01*
X153356025Y-105700192D02*
X153056025Y-106219808D01*
D11*
X153873552Y-104242135D02*
G75*
G03*
X153873552Y-104242135I-102956J0D01*
G01*
D10*
%TO.C,D8*%
X149485412Y-107183975D02*
X148965796Y-107483975D01*
X150485412Y-108916025D02*
X149965796Y-109216025D01*
D11*
X151676425Y-107860596D02*
G75*
G03*
X151676425Y-107860596I-102956J0D01*
G01*
D10*
%TO.C,D4*%
X137990000Y-102243522D02*
X137990000Y-101643522D01*
X139990000Y-102243522D02*
X139990000Y-101643522D01*
D11*
X138462956Y-103713522D02*
G75*
G03*
X138462956Y-103713522I-102956J0D01*
G01*
D10*
%TO.C,D10*%
X154250000Y-101550000D02*
X154250000Y-102150000D01*
X152250000Y-101550000D02*
X152250000Y-102150000D01*
D11*
X153982956Y-100080000D02*
G75*
G03*
X153982956Y-100080000I-102956J0D01*
G01*
D10*
%TO.C,D1*%
X145820000Y-93540000D02*
X146420000Y-93540000D01*
X145820000Y-95540000D02*
X146420000Y-95540000D01*
D11*
X144452956Y-93910000D02*
G75*
G03*
X144452956Y-93910000I-102956J0D01*
G01*
D10*
%TO.C,D5*%
X139223975Y-106259808D02*
X138923975Y-105740192D01*
X140956025Y-105259808D02*
X140656025Y-104740192D01*
D11*
X140382360Y-107347865D02*
G75*
G03*
X140382360Y-107347865I-102956J0D01*
G01*
D10*
%TO.C,S1*%
X145080000Y-100896500D02*
X147680000Y-100896500D01*
X145080000Y-102823500D02*
X147680000Y-102823500D01*
%TO.C,D3*%
X138923975Y-98059808D02*
X139223975Y-97540192D01*
X140656025Y-99059808D02*
X140956025Y-98540192D01*
D11*
X138612360Y-99517865D02*
G75*
G03*
X138612360Y-99517865I-102956J0D01*
G01*
%TD*%
M02*
