%TF.GenerationSoftware,KiCad,Pcbnew,6.0.8-f2edbf62ab~116~ubuntu20.04.1*%
%TF.CreationDate,2022-10-17T17:20:23+03:00*%
%TF.ProjectId,nicla_sense,6e69636c-615f-4736-956e-73652e6b6963,rev?*%
%TF.SameCoordinates,Original*%
%TF.FileFunction,Copper,L1,Top*%
%TF.FilePolarity,Positive*%
%FSLAX46Y46*%
G04 Gerber Fmt 4.6, Leading zero omitted, Abs format (unit mm)*
G04 Created by KiCad (PCBNEW 6.0.8-f2edbf62ab~116~ubuntu20.04.1) date 2022-10-17 17:20:23*
%MOMM*%
%LPD*%
G01*
G04 APERTURE LIST*
G04 Aperture macros list*
%AMRotRect*
0 Rectangle, with rotation*
0 The origin of the aperture is its center*
0 $1 length*
0 $2 width*
0 $3 Rotation angle, in degrees counterclockwise*
0 Add horizontal line*
21,1,$1,$2,0,0,$3*%
G04 Aperture macros list end*
%TA.AperFunction,SMDPad,CuDef*%
%ADD10RotRect,0.700000X0.700000X150.000000*%
%TD*%
%TA.AperFunction,SMDPad,CuDef*%
%ADD11RotRect,0.700000X0.700000X330.000000*%
%TD*%
%TA.AperFunction,ComponentPad*%
%ADD12R,1.700000X1.700000*%
%TD*%
%TA.AperFunction,ComponentPad*%
%ADD13O,1.700000X1.700000*%
%TD*%
%TA.AperFunction,SMDPad,CuDef*%
%ADD14RotRect,0.700000X0.700000X300.000000*%
%TD*%
%TA.AperFunction,SMDPad,CuDef*%
%ADD15RotRect,0.700000X0.700000X120.000000*%
%TD*%
%TA.AperFunction,SMDPad,CuDef*%
%ADD16R,0.700000X0.700000*%
%TD*%
%TA.AperFunction,SMDPad,CuDef*%
%ADD17RotRect,0.700000X0.700000X30.000000*%
%TD*%
%TA.AperFunction,SMDPad,CuDef*%
%ADD18RotRect,0.700000X0.700000X210.000000*%
%TD*%
%TA.AperFunction,SMDPad,CuDef*%
%ADD19RotRect,0.700000X0.700000X240.000000*%
%TD*%
%TA.AperFunction,SMDPad,CuDef*%
%ADD20RotRect,0.700000X0.700000X60.000000*%
%TD*%
%TA.AperFunction,SMDPad,CuDef*%
%ADD21R,0.550000X0.550000*%
%TD*%
%TA.AperFunction,ViaPad*%
%ADD22C,0.800000*%
%TD*%
%TA.AperFunction,Conductor*%
%ADD23C,0.250000*%
%TD*%
G04 APERTURE END LIST*
D10*
%TO.P,D6,1,VDD*%
%TO.N,+5V*%
X142987413Y-109173814D03*
%TO.P,D6,2,DOUT*%
%TO.N,Net-(D6-Pad2)*%
X143537413Y-108221186D03*
D11*
%TO.P,D6,3,VSS*%
%TO.N,GND*%
X141952587Y-107306186D03*
%TO.P,D6,4,DIN*%
%TO.N,Net-(D5-Pad2)*%
X141402587Y-108258814D03*
%TD*%
D12*
%TO.P,J2,1,Pin_1*%
%TO.N,unconnected-(J2-Pad1)*%
X156180000Y-111080000D03*
D13*
%TO.P,J2,2,Pin_2*%
%TO.N,unconnected-(J2-Pad2)*%
X156180000Y-108540000D03*
%TO.P,J2,3,Pin_3*%
%TO.N,unconnected-(J2-Pad3)*%
X156180000Y-106000000D03*
%TO.P,J2,4,Pin_4*%
%TO.N,unconnected-(J2-Pad4)*%
X156180000Y-103460000D03*
%TO.P,J2,5,Pin_5*%
%TO.N,DIN*%
X156180000Y-100920000D03*
%TO.P,J2,6,Pin_6*%
%TO.N,GND*%
X156180000Y-98380000D03*
%TO.P,J2,7,Pin_7*%
%TO.N,unconnected-(J2-Pad7)*%
X156180000Y-95840000D03*
%TO.P,J2,8,Pin_8*%
%TO.N,unconnected-(J2-Pad8)*%
X156180000Y-93300000D03*
%TO.P,J2,9,Pin_9*%
%TO.N,+5V*%
X156180000Y-90760000D03*
%TD*%
D14*
%TO.P,D11,1,VDD*%
%TO.N,+5V*%
X152358814Y-97132587D03*
%TO.P,D11,2,DOUT*%
%TO.N,Net-(D11-Pad2)*%
X151406186Y-97682587D03*
D15*
%TO.P,D11,3,VSS*%
%TO.N,GND*%
X152321186Y-99267413D03*
%TO.P,D11,4,DIN*%
%TO.N,Net-(D10-Pad2)*%
X153273814Y-98717413D03*
%TD*%
D16*
%TO.P,D7,1,VDD*%
%TO.N,+5V*%
X147005000Y-109740000D03*
%TO.P,D7,2,DOUT*%
%TO.N,Net-(D7-Pad2)*%
X147005000Y-108640000D03*
%TO.P,D7,3,VSS*%
%TO.N,GND*%
X145175000Y-108640000D03*
%TO.P,D7,4,DIN*%
%TO.N,Net-(D6-Pad2)*%
X145175000Y-109740000D03*
%TD*%
D17*
%TO.P,D2,1,VDD*%
%TO.N,+5V*%
X141446984Y-95511186D03*
%TO.P,D2,2,DOUT*%
%TO.N,Net-(D2-Pad2)*%
X141996984Y-96463814D03*
D18*
%TO.P,D2,3,VSS*%
%TO.N,GND*%
X143581810Y-95548814D03*
%TO.P,D2,4,DIN*%
%TO.N,Net-(D1-Pad2)*%
X143031810Y-94596186D03*
%TD*%
D11*
%TO.P,D12,1,VDD*%
%TO.N,+5V*%
X149182587Y-94596186D03*
%TO.P,D12,2,DOUT*%
%TO.N,unconnected-(D12-Pad2)*%
X148632587Y-95548814D03*
D10*
%TO.P,D12,3,VSS*%
%TO.N,GND*%
X150217413Y-96463814D03*
%TO.P,D12,4,DIN*%
%TO.N,Net-(D11-Pad2)*%
X150767413Y-95511186D03*
%TD*%
D19*
%TO.P,D9,1,VDD*%
%TO.N,+5V*%
X153273814Y-104942587D03*
%TO.P,D9,2,DOUT*%
%TO.N,Net-(D10-Pad4)*%
X152321186Y-104392587D03*
D20*
%TO.P,D9,3,VSS*%
%TO.N,GND*%
X151406186Y-105977413D03*
%TO.P,D9,4,DIN*%
%TO.N,Net-(D8-Pad2)*%
X152358814Y-106527413D03*
%TD*%
D18*
%TO.P,D8,1,VDD*%
%TO.N,+5V*%
X150793017Y-108218814D03*
%TO.P,D8,2,DOUT*%
%TO.N,Net-(D8-Pad2)*%
X150243017Y-107266186D03*
D17*
%TO.P,D8,3,VSS*%
%TO.N,GND*%
X148658191Y-108181186D03*
%TO.P,D8,4,DIN*%
%TO.N,Net-(D7-Pad2)*%
X149208191Y-109133814D03*
%TD*%
D16*
%TO.P,D4,1,VDD*%
%TO.N,+5V*%
X138440000Y-102858522D03*
%TO.P,D4,2,DOUT*%
%TO.N,Net-(D4-Pad2)*%
X139540000Y-102858522D03*
%TO.P,D4,3,VSS*%
%TO.N,GND*%
X139540000Y-101028522D03*
%TO.P,D4,4,DIN*%
%TO.N,Net-(D3-Pad2)*%
X138440000Y-101028522D03*
%TD*%
%TO.P,D10,1,VDD*%
%TO.N,+5V*%
X153800000Y-100935000D03*
%TO.P,D10,2,DOUT*%
%TO.N,Net-(D10-Pad2)*%
X152700000Y-100935000D03*
%TO.P,D10,3,VSS*%
%TO.N,GND*%
X152700000Y-102765000D03*
%TO.P,D10,4,DIN*%
%TO.N,Net-(D10-Pad4)*%
X153800000Y-102765000D03*
%TD*%
%TO.P,D1,1,VDD*%
%TO.N,+5V*%
X145205000Y-93990000D03*
%TO.P,D1,2,DOUT*%
%TO.N,Net-(D1-Pad2)*%
X145205000Y-95090000D03*
%TO.P,D1,3,VSS*%
%TO.N,GND*%
X147035000Y-95090000D03*
%TO.P,D1,4,DIN*%
%TO.N,DIN*%
X147035000Y-93990000D03*
%TD*%
D15*
%TO.P,D5,1,VDD*%
%TO.N,+5V*%
X139921186Y-106567413D03*
%TO.P,D5,2,DOUT*%
%TO.N,Net-(D5-Pad2)*%
X140873814Y-106017413D03*
D14*
%TO.P,D5,3,VSS*%
%TO.N,GND*%
X139958814Y-104432587D03*
%TO.P,D5,4,DIN*%
%TO.N,Net-(D4-Pad2)*%
X139006186Y-104982587D03*
%TD*%
D21*
%TO.P,S1,A1*%
%TO.N,GND*%
X145055000Y-101485000D03*
%TO.P,S1,A2*%
%TO.N,unconnected-(S1-PadA2)*%
X145055000Y-102235000D03*
%TO.P,S1,B1*%
%TO.N,Net-(J1-Pad1)*%
X147705000Y-101485000D03*
%TO.P,S1,B2*%
%TO.N,unconnected-(S1-PadB2)*%
X147705000Y-102235000D03*
%TD*%
D20*
%TO.P,D3,1,VDD*%
%TO.N,+5V*%
X139006186Y-98817413D03*
%TO.P,D3,2,DOUT*%
%TO.N,Net-(D3-Pad2)*%
X139958814Y-99367413D03*
D19*
%TO.P,D3,3,VSS*%
%TO.N,GND*%
X140873814Y-97782587D03*
%TO.P,D3,4,DIN*%
%TO.N,Net-(D2-Pad2)*%
X139921186Y-97232587D03*
%TD*%
D12*
%TO.P,J1,1,Pin_1*%
%TO.N,Net-(J1-Pad1)*%
X135950000Y-95830000D03*
D13*
%TO.P,J1,2,Pin_2*%
%TO.N,unconnected-(J1-Pad2)*%
X135950000Y-98370000D03*
%TO.P,J1,3,Pin_3*%
%TO.N,unconnected-(J1-Pad3)*%
X135950000Y-100910000D03*
%TO.P,J1,4,Pin_4*%
%TO.N,unconnected-(J1-Pad4)*%
X135950000Y-103450000D03*
%TO.P,J1,5,Pin_5*%
%TO.N,unconnected-(J1-Pad5)*%
X135950000Y-105990000D03*
%TO.P,J1,6,Pin_6*%
%TO.N,unconnected-(J1-Pad6)*%
X135950000Y-108530000D03*
%TO.P,J1,7,Pin_7*%
%TO.N,unconnected-(J1-Pad7)*%
X135950000Y-111070000D03*
%TD*%
D22*
%TO.N,GND*%
X149400000Y-97600000D03*
X152800000Y-95100000D03*
%TO.N,DIN*%
X147100000Y-92900000D03*
X153800000Y-96700000D03*
%TO.N,Net-(J1-Pad1)*%
X138310000Y-95750000D03*
X141850000Y-100330000D03*
%TD*%
D23*
%TO.N,Net-(J1-Pad1)*%
X141850000Y-100330000D02*
X146812000Y-100330000D01*
X146812000Y-100330000D02*
X147417000Y-100935000D01*
X147417000Y-100935000D02*
X147431778Y-100935000D01*
X147431778Y-100935000D02*
X147705000Y-101208222D01*
X147705000Y-101208222D02*
X147705000Y-101485000D01*
%TO.N,+5V*%
X151733251Y-108218814D02*
X153273814Y-106678251D01*
X139921186Y-107843251D02*
X141251749Y-109173814D01*
X147201923Y-109936923D02*
X149543077Y-109936923D01*
X154076923Y-100658077D02*
X154076923Y-98401521D01*
X150793017Y-108218814D02*
X151733251Y-108218814D01*
X150918251Y-94596186D02*
X149182587Y-94596186D01*
X154475000Y-101610000D02*
X153800000Y-100935000D01*
X139157413Y-106567413D02*
X139921186Y-106567413D01*
X142987413Y-109173814D02*
X144228599Y-110415000D01*
X149182587Y-93957989D02*
X147400098Y-92175500D01*
X152807989Y-97132587D02*
X152358814Y-97132587D01*
X156180000Y-90760000D02*
X154754437Y-90760000D01*
X138203077Y-105613077D02*
X139157413Y-106567413D01*
X139006186Y-98817413D02*
X137765000Y-100058599D01*
X154754437Y-90760000D02*
X150918251Y-94596186D01*
X145205000Y-93990000D02*
X145008077Y-93793077D01*
X137765000Y-102183522D02*
X138440000Y-102858522D01*
X137765000Y-100058599D02*
X137765000Y-102183522D01*
X147005000Y-109740000D02*
X147201923Y-109936923D01*
X138203077Y-103095445D02*
X138203077Y-105613077D01*
X147400098Y-92175500D02*
X146419500Y-92175500D01*
X152358814Y-96036749D02*
X150918251Y-94596186D01*
X144228599Y-110415000D02*
X146330000Y-110415000D01*
X152358814Y-97132587D02*
X152358814Y-96036749D01*
X153273814Y-106678251D02*
X153273814Y-104942587D01*
X142760948Y-93793077D02*
X141446984Y-95107041D01*
X154475000Y-103741401D02*
X154475000Y-101610000D01*
X146330000Y-110415000D02*
X147005000Y-109740000D01*
X141446984Y-95107041D02*
X141446984Y-95511186D01*
X141251749Y-109173814D02*
X142987413Y-109173814D01*
X138440000Y-102858522D02*
X138203077Y-103095445D01*
X145008077Y-93793077D02*
X142760948Y-93793077D01*
X154076923Y-98401521D02*
X152807989Y-97132587D01*
X149543077Y-109936923D02*
X150793017Y-108686983D01*
X146419500Y-92175500D02*
X145205000Y-93390000D01*
X145205000Y-93390000D02*
X145205000Y-93990000D01*
X139921186Y-106567413D02*
X139921186Y-107843251D01*
X150793017Y-108686983D02*
X150793017Y-108218814D01*
X149182587Y-94596186D02*
X149182587Y-93957989D01*
X153273814Y-104942587D02*
X154475000Y-103741401D01*
X153800000Y-100935000D02*
X154076923Y-100658077D01*
%TO.N,Net-(D1-Pad2)*%
X144188834Y-95090000D02*
X143695020Y-94596186D01*
X143695020Y-94596186D02*
X143031810Y-94596186D01*
X145205000Y-95090000D02*
X144188834Y-95090000D01*
%TO.N,GND*%
X139540000Y-101028522D02*
X140215000Y-101703522D01*
X149400000Y-96700000D02*
X149400000Y-97600000D01*
X148442005Y-107965000D02*
X148658191Y-108181186D01*
X143841186Y-107306186D02*
X145175000Y-108640000D01*
X156180000Y-98055402D02*
X153224598Y-95100000D01*
X140215000Y-104176401D02*
X139958814Y-104432587D01*
X139958814Y-104432587D02*
X140362959Y-104432587D01*
X148408814Y-96463814D02*
X147035000Y-95090000D01*
X156180000Y-98380000D02*
X156180000Y-98055402D01*
X151406186Y-105977413D02*
X151406186Y-104058814D01*
X145850000Y-107965000D02*
X148442005Y-107965000D01*
X152321186Y-99267413D02*
X151917041Y-99267413D01*
X144003492Y-95970496D02*
X143581810Y-95548814D01*
X141952587Y-107306186D02*
X143841186Y-107306186D01*
X150457819Y-105977413D02*
X151406186Y-105977413D01*
X150217413Y-96463814D02*
X148408814Y-96463814D01*
X140362959Y-104432587D02*
X141952587Y-106022215D01*
X140873814Y-99694708D02*
X139540000Y-101028522D01*
X148658191Y-107777041D02*
X150457819Y-105977413D01*
X145055000Y-101485000D02*
X139996478Y-101485000D01*
X148408814Y-96463814D02*
X149163814Y-96463814D01*
X151406186Y-104058814D02*
X152700000Y-102765000D01*
X141952587Y-106022215D02*
X141952587Y-107306186D01*
X140215000Y-101703522D02*
X140215000Y-104176401D01*
X151917041Y-99267413D02*
X150217413Y-97567785D01*
X148658191Y-108181186D02*
X148658191Y-107777041D01*
X153224598Y-95100000D02*
X152800000Y-95100000D01*
X150217413Y-97567785D02*
X150217413Y-96463814D01*
X140873814Y-97782587D02*
X140873814Y-99694708D01*
X152700000Y-102765000D02*
X152025000Y-102090000D01*
X152025000Y-99563599D02*
X152321186Y-99267413D01*
X152025000Y-102090000D02*
X152025000Y-99563599D01*
X149163814Y-96463814D02*
X149400000Y-96700000D01*
X147035000Y-95090000D02*
X146154504Y-95970496D01*
X145175000Y-108640000D02*
X145850000Y-107965000D01*
X139996478Y-101485000D02*
X139540000Y-101028522D01*
X146154504Y-95970496D02*
X144003492Y-95970496D01*
%TO.N,DIN*%
X147035000Y-92965000D02*
X147100000Y-92900000D01*
X147035000Y-93990000D02*
X147035000Y-92965000D01*
X154801923Y-97701923D02*
X153800000Y-96700000D01*
X154801923Y-99541923D02*
X154801923Y-97701923D01*
X156180000Y-100920000D02*
X154801923Y-99541923D01*
%TO.N,Net-(D2-Pad2)*%
X140689959Y-96463814D02*
X139921186Y-97232587D01*
X141996984Y-96463814D02*
X140689959Y-96463814D01*
%TO.N,Net-(J1-Pad1)*%
X136030000Y-95750000D02*
X135950000Y-95830000D01*
X138310000Y-95750000D02*
X136030000Y-95750000D01*
%TO.N,Net-(D5-Pad2)*%
X140873814Y-106017413D02*
X140873814Y-107730041D01*
X140873814Y-107730041D02*
X141402587Y-108258814D01*
%TO.N,Net-(D3-Pad2)*%
X139958814Y-99367413D02*
X138440000Y-100886227D01*
X138440000Y-100886227D02*
X138440000Y-101028522D01*
%TO.N,Net-(D4-Pad2)*%
X139540000Y-102858522D02*
X139540000Y-103458522D01*
X139540000Y-103458522D02*
X139006186Y-103992336D01*
X139006186Y-103992336D02*
X139006186Y-104982587D01*
%TO.N,Net-(D6-Pad2)*%
X145056227Y-109740000D02*
X145175000Y-109740000D01*
X143537413Y-108221186D02*
X145056227Y-109740000D01*
%TO.N,Net-(D10-Pad4)*%
X153800000Y-102913773D02*
X153800000Y-102765000D01*
X152321186Y-104392587D02*
X153800000Y-102913773D01*
%TO.N,Net-(D7-Pad2)*%
X147005000Y-108640000D02*
X148051167Y-108640000D01*
X148051167Y-108640000D02*
X148544981Y-109133814D01*
X148544981Y-109133814D02*
X149208191Y-109133814D01*
%TO.N,Net-(D8-Pad2)*%
X151620041Y-107266186D02*
X152358814Y-106527413D01*
X150243017Y-107266186D02*
X151620041Y-107266186D01*
%TO.N,Net-(D10-Pad2)*%
X152700000Y-100685000D02*
X153273814Y-100111186D01*
X152700000Y-100935000D02*
X152700000Y-100685000D01*
X153273814Y-100111186D02*
X153273814Y-98717413D01*
%TO.N,Net-(D11-Pad2)*%
X151406186Y-97682587D02*
X151406186Y-96149959D01*
X151406186Y-96149959D02*
X150767413Y-95511186D01*
%TD*%
M02*
