%TF.GenerationSoftware,KiCad,Pcbnew,6.0.8-f2edbf62ab~116~ubuntu20.04.1*%
%TF.CreationDate,2022-10-17T17:20:23+03:00*%
%TF.ProjectId,nicla_sense,6e69636c-615f-4736-956e-73652e6b6963,rev?*%
%TF.SameCoordinates,Original*%
%TF.FileFunction,Copper,L2,Bot*%
%TF.FilePolarity,Positive*%
%FSLAX46Y46*%
G04 Gerber Fmt 4.6, Leading zero omitted, Abs format (unit mm)*
G04 Created by KiCad (PCBNEW 6.0.8-f2edbf62ab~116~ubuntu20.04.1) date 2022-10-17 17:20:23*
%MOMM*%
%LPD*%
G01*
G04 APERTURE LIST*
%TA.AperFunction,ComponentPad*%
%ADD10R,1.700000X1.700000*%
%TD*%
%TA.AperFunction,ComponentPad*%
%ADD11O,1.700000X1.700000*%
%TD*%
%TA.AperFunction,ViaPad*%
%ADD12C,0.800000*%
%TD*%
%TA.AperFunction,Conductor*%
%ADD13C,0.250000*%
%TD*%
G04 APERTURE END LIST*
D10*
%TO.P,J2,1,Pin_1*%
%TO.N,unconnected-(J2-Pad1)*%
X156180000Y-111080000D03*
D11*
%TO.P,J2,2,Pin_2*%
%TO.N,unconnected-(J2-Pad2)*%
X156180000Y-108540000D03*
%TO.P,J2,3,Pin_3*%
%TO.N,unconnected-(J2-Pad3)*%
X156180000Y-106000000D03*
%TO.P,J2,4,Pin_4*%
%TO.N,unconnected-(J2-Pad4)*%
X156180000Y-103460000D03*
%TO.P,J2,5,Pin_5*%
%TO.N,DIN*%
X156180000Y-100920000D03*
%TO.P,J2,6,Pin_6*%
%TO.N,GND*%
X156180000Y-98380000D03*
%TO.P,J2,7,Pin_7*%
%TO.N,unconnected-(J2-Pad7)*%
X156180000Y-95840000D03*
%TO.P,J2,8,Pin_8*%
%TO.N,unconnected-(J2-Pad8)*%
X156180000Y-93300000D03*
%TO.P,J2,9,Pin_9*%
%TO.N,+5V*%
X156180000Y-90760000D03*
%TD*%
D10*
%TO.P,J1,1,Pin_1*%
%TO.N,Net-(J1-Pad1)*%
X135950000Y-95830000D03*
D11*
%TO.P,J1,2,Pin_2*%
%TO.N,unconnected-(J1-Pad2)*%
X135950000Y-98370000D03*
%TO.P,J1,3,Pin_3*%
%TO.N,unconnected-(J1-Pad3)*%
X135950000Y-100910000D03*
%TO.P,J1,4,Pin_4*%
%TO.N,unconnected-(J1-Pad4)*%
X135950000Y-103450000D03*
%TO.P,J1,5,Pin_5*%
%TO.N,unconnected-(J1-Pad5)*%
X135950000Y-105990000D03*
%TO.P,J1,6,Pin_6*%
%TO.N,unconnected-(J1-Pad6)*%
X135950000Y-108530000D03*
%TO.P,J1,7,Pin_7*%
%TO.N,unconnected-(J1-Pad7)*%
X135950000Y-111070000D03*
%TD*%
D12*
%TO.N,GND*%
X149400000Y-97600000D03*
X152800000Y-95100000D03*
%TO.N,DIN*%
X147100000Y-92900000D03*
X153800000Y-96700000D03*
%TO.N,Net-(J1-Pad1)*%
X138310000Y-95750000D03*
X141850000Y-100330000D03*
%TD*%
D13*
%TO.N,GND*%
X150300000Y-97600000D02*
X149400000Y-97600000D01*
X152800000Y-95100000D02*
X150300000Y-97600000D01*
%TO.N,DIN*%
X149098000Y-98552000D02*
X147100000Y-96554000D01*
X147100000Y-96554000D02*
X147100000Y-92900000D01*
X153800000Y-96700000D02*
X153800000Y-97152000D01*
X153800000Y-97152000D02*
X152400000Y-98552000D01*
X152400000Y-98552000D02*
X149098000Y-98552000D01*
%TO.N,Net-(J1-Pad1)*%
X138310000Y-97560000D02*
X138310000Y-95750000D01*
X141850000Y-100330000D02*
X141080000Y-100330000D01*
X141080000Y-100330000D02*
X138310000Y-97560000D01*
%TD*%
M02*
