M48
; DRILL file {KiCad 6.0.8-f2edbf62ab~116~ubuntu20.04.1} date Lu 17 oct 2022 17:20:13 +0300
; FORMAT={-:-/ absolute / inch / decimal}
; #@! TF.CreationDate,2022-10-17T17:20:13+03:00
; #@! TF.GenerationSoftware,Kicad,Pcbnew,6.0.8-f2edbf62ab~116~ubuntu20.04.1
; #@! TF.FileFunction,Plated,1,2,PTH
FMAT,2
INCH
; #@! TA.AperFunction,Plated,PTH,ViaDrill
T1C0.0157
; #@! TA.AperFunction,Plated,PTH,ComponentDrill
T2C0.0394
%
G90
G05
T1
X5.4453Y-3.7697
X5.5846Y-3.95
X5.7913Y-3.6575
X5.8819Y-3.8425
X6.0157Y-3.7441
X6.0551Y-3.8071
T2
X5.3524Y-3.7728
X5.3524Y-3.8728
X5.3524Y-3.9728
X5.3524Y-4.0728
X5.3524Y-4.1728
X5.3524Y-4.2728
X5.3524Y-4.3728
X6.1488Y-3.5732
X6.1488Y-3.6732
X6.1488Y-3.7732
X6.1488Y-3.8732
X6.1488Y-3.9732
X6.1488Y-4.0732
X6.1488Y-4.1732
X6.1488Y-4.2732
X6.1488Y-4.3732
T0
M30
